# xmcd
#
# Track frame offsets:
# 150
# 11270
# 22230
# 36575
# 50135
# 60680
# 72195
# 83722
# 95160
# 106632
# 116157
# 125887
#
# Disc length: 1807 seconds
#
#
# Revision: 0
# Processed by: cddbd v1.5.1PL0 Copyright (c) Steve Scherf et al.
# Submitted via: FreeRIP 2.942 
#
DISCID=ac070d0c
DTITLE=Charlie Moore and Bill Napier - Country Hymnal
DYEAR=1988
DGENRE=Gospel
TTITLE0=Springtime In Heaven
TTITLE1=I'd Rather Be On The Inside Looking Out
TTITLE2=Something Got Hold Of Me
TTITLE3=My Home In The Sky
TTITLE4=Old Fashioned Preacher
TTITLE5=Jonah And The Whale
TTITLE6=Home In The Rock
TTITLE7=Our Fathers Had Religion
TTITLE8=Praise God I'm Ready To Go
TTITLE9=The Arm Of God
TTITLE10=God Had His Way
TTITLE11=Gathering In The Sky
EXTD=King Records
EXTT0=
EXTT1=
EXTT2=
EXTT3=
EXTT4=
EXTT5=
EXTT6=
EXTT7=
EXTT8=
EXTT9=
EXTT10=
EXTT11=
PLAYORDER=
